<svg width="1248" height="456" viewBox="0 0 1248 456" fill="none" xmlns="http://www.w3.org/2000/svg">
<mask id="mask0_1483_72161" style="mask-type:alpha" maskUnits="userSpaceOnUse" x="0" y="0" width="1248" height="456">
<rect width="1248" height="456" rx="28" fill="#212A3F"/>
</mask>
<g mask="url(#mask0_1483_72161)">
<rect width="1248" height="456" rx="28" fill="#121929"/>
<g opacity="0.05">
<path d="M778.946 208.944L778.275 194.438C777.689 189.63 776.851 184.847 776.152 180.039C775.454 175.23 773.805 170.608 772.66 165.879C771.514 161.15 769.419 156.66 767.799 152.064C758.134 128.004 742.424 106.559 722.04 89.5997C701.656 72.6404 677.217 60.6822 650.856 54.7685C624.495 48.8547 597.013 49.1651 570.807 55.6726C544.601 62.1802 520.468 74.687 500.514 92.1021C483.614 106.921 470.133 124.914 460.925 144.944C451.708 165.142 446.953 186.926 446.956 208.944L447.934 225.362C448.66 230.676 449.666 236.228 450.56 241.621C451.454 247.014 453.522 252.248 455.002 257.562C456.483 262.875 459.053 267.843 461.121 272.944C470.357 292.95 483.845 310.922 500.737 325.733C517.457 340.201 537.054 351.339 558.374 358.49C599.12 371.791 643.699 369.574 682.764 352.303C721.829 335.032 752.344 304.048 767.91 265.85C769.531 261.228 771.347 256.685 772.8 252.036C774.252 247.386 775.23 242.578 776.292 237.849C777.354 233.12 777.829 228.285 778.415 223.476L778.946 208.944ZM774.839 208.944C774.857 237.366 765.997 265.153 749.383 288.779C732.768 312.405 709.148 330.806 681.518 341.647C653.889 352.488 623.496 355.281 594.195 349.671C564.894 344.061 538.006 330.302 516.941 310.138C495.955 290.074 481.678 264.555 475.906 236.794C470.135 209.032 473.126 180.268 484.504 154.119C495.882 127.97 515.138 105.606 539.851 89.8387C564.563 74.0717 593.627 65.6064 623.386 65.5085C663.473 65.445 701.945 80.5214 730.346 107.423C758.746 134.326 774.75 170.851 774.839 208.97V208.944Z" fill="white"/>
<path d="M799.198 208.944C799.435 186.936 795.116 165.1 786.487 144.678C782.183 134.448 776.957 124.59 770.869 115.215C764.666 105.829 757.517 97.038 749.524 88.9672C733 71.9709 713.104 58.2501 690.981 48.5949C668.859 38.9397 644.946 33.5406 620.62 32.7085C596.295 31.8764 572.036 35.6276 549.241 43.7462C526.446 51.8649 505.565 64.1908 487.799 80.0142C478.668 88.2596 470.397 97.3256 463.102 107.086C455.721 116.876 449.491 127.407 444.523 138.488C434.372 160.704 429.134 184.668 429.134 208.891C429.134 233.113 434.372 257.077 444.523 279.293C454.69 301.34 469.417 321.217 487.827 337.741C505.611 353.519 526.493 365.806 549.278 373.898C572.063 381.99 596.303 385.729 620.609 384.9C644.916 384.07 668.811 378.69 690.928 369.066C713.044 359.442 732.947 345.763 749.496 328.814C757.487 320.757 764.626 311.975 770.813 302.592C776.911 293.219 782.146 283.361 786.459 273.13C795.09 252.736 799.419 230.926 799.198 208.944V208.944ZM793.946 208.944C794.02 249.172 778.356 287.989 750.001 317.845C721.646 347.7 682.628 366.46 640.534 370.476C598.44 374.491 556.28 363.475 522.254 339.57C488.228 315.665 464.768 280.58 456.437 241.139C448.106 201.698 455.5 160.72 477.18 126.176C498.86 91.6309 533.277 65.9887 573.737 54.2365C614.196 42.4843 657.806 45.462 696.085 62.5906C734.364 79.7191 764.576 109.774 780.843 146.91C789.448 166.57 793.9 187.648 793.946 208.944V208.944Z" fill="white"/>
<path d="M819.371 208.944C819.575 184.424 814.706 160.106 805.038 137.373C795.492 114.457 781.407 93.4971 763.55 75.6312C740.391 52.2138 711.466 34.6468 679.385 24.5153C647.303 14.3838 613.073 12.0063 579.783 17.5973C546.494 23.1882 515.191 36.5719 488.7 56.5407C462.209 76.5096 441.362 102.435 428.04 131.98C417.036 156.285 411.36 182.469 411.36 208.931C411.36 235.393 417.036 261.577 428.04 285.883C439.057 310.013 455.045 331.802 475.06 349.962C494.53 367.48 517.441 381.177 542.481 390.269C567.522 399.36 594.203 403.669 620.996 402.949C647.789 402.228 674.171 396.493 698.631 386.07C723.092 375.647 745.152 360.741 763.55 342.205C772.484 333.288 780.492 323.572 787.465 313.193C794.329 302.808 800.21 291.864 805.038 280.49C814.705 257.766 819.575 233.456 819.371 208.944V208.944ZM813.14 208.944C813.192 253.688 795.742 296.85 764.184 330.038C732.626 363.226 689.217 384.067 642.396 388.508C595.576 392.95 548.692 380.674 510.862 354.068C473.031 327.463 446.959 288.429 437.714 244.558C428.469 200.687 436.713 155.114 460.842 116.702C484.972 78.2901 523.262 49.7845 568.267 36.7286C613.272 23.6728 661.775 27 704.343 46.0631C746.911 65.1262 780.503 98.5625 798.584 139.87C808.165 161.761 813.111 185.234 813.14 208.944V208.944Z" fill="white"/>
<path d="M839.461 208.943C839.637 181.927 834.217 155.143 823.508 130.119C812.917 104.926 797.312 81.9144 777.549 62.3463C752.098 36.9761 720.42 18.0124 685.36 7.15718C650.299 -3.69802 612.952 -6.10517 576.672 0.152205C540.391 6.40958 506.312 21.1355 477.494 43.0081C448.675 64.8807 426.019 93.2157 411.559 125.47C399.723 151.855 393.622 180.244 393.622 208.93C393.622 237.615 399.723 266.005 411.559 292.39C423.427 318.634 440.686 342.362 462.322 362.182C494.406 391.323 534.885 410.725 578.603 417.916C622.322 425.107 667.302 419.763 707.816 402.563C720.948 396.942 733.469 390.108 745.197 382.16C756.815 374.245 767.661 365.354 777.605 355.593C797.361 336.024 812.974 313.025 823.592 287.847C834.28 262.792 839.672 235.98 839.461 208.943V208.943ZM832.42 208.943C832.451 258.19 813.219 305.688 778.465 342.2C743.712 378.712 695.92 401.629 644.384 406.492C592.848 411.356 541.251 397.82 499.628 368.516C458.005 339.213 429.331 296.236 419.181 247.944C409.031 199.652 418.131 149.495 444.712 107.229C471.293 64.9635 513.455 33.6088 562.998 19.2625C612.541 4.91618 665.924 8.60389 712.766 29.6085C759.609 50.613 796.562 87.4329 816.439 132.908C826.985 157.007 832.443 182.842 832.504 208.943H832.42Z" fill="white"/>
<path d="M859.434 208.945C859.539 148.858 834.888 91.123 790.764 48.1122C746.641 5.10136 686.555 -19.7631 623.384 -21.1524C574.906 -22.3114 527.182 -9.57306 486.419 15.4061C445.657 40.3852 413.74 76.4494 394.821 118.909C382.128 147.387 375.587 178.001 375.587 208.931C375.587 239.861 382.128 270.476 394.821 298.954C413.807 341.358 445.737 377.369 486.479 402.329C527.222 427.29 574.904 440.051 623.356 438.962C686.471 437.452 746.469 412.56 790.564 369.593C834.658 326.626 859.361 268.981 859.406 208.945H859.434ZM851.779 208.945C851.787 262.74 830.756 314.617 792.775 354.486C754.793 394.355 702.577 419.367 646.278 424.659C589.98 429.951 533.625 415.143 488.17 383.117C442.715 351.09 411.411 304.133 400.343 251.377C389.276 198.62 399.236 143.835 428.289 97.6747C457.341 51.5142 503.408 17.2777 557.532 1.62249C611.656 -14.0327 669.968 -9.98733 721.13 12.9715C772.292 35.9304 812.646 76.162 834.346 125.843C845.835 152.188 851.759 180.425 851.779 208.945V208.945Z" fill="white"/>
<path d="M879.356 208.944C879.409 151.674 858.621 96.1503 820.52 51.7971C782.419 7.4439 729.352 -23.0065 670.327 -34.3855C611.301 -45.7645 549.953 -37.3711 496.695 -10.6302C443.437 16.1107 401.551 59.5515 378.144 112.32C357.704 158.322 352.331 209.118 362.728 258.069C373.126 307.021 398.809 351.852 436.423 386.704C473.194 420.715 519.689 443.666 570.099 452.692C620.509 461.717 672.598 456.415 719.858 437.449C767.117 418.482 807.451 386.692 835.818 346.052C864.186 305.411 879.329 257.722 879.356 208.944ZM871.254 208.944C871.265 267.365 848.426 323.701 807.18 366.998C765.934 410.295 709.228 437.457 648.09 443.202C586.952 448.948 525.752 432.866 476.391 398.084C427.03 363.301 393.038 312.305 381.023 255.013C369.009 197.72 379.831 138.226 411.387 88.1004C442.942 37.9747 492.974 0.800203 551.753 -16.1936C610.532 -33.1875 673.857 -28.7859 729.413 -3.8451C784.969 21.0957 828.785 64.7929 852.34 118.749C864.792 147.347 871.218 177.992 871.254 208.944V208.944Z" fill="white"/>
<path d="M899.164 208.943C899.372 174.425 892.416 140.208 878.695 108.251C864.974 76.2936 844.758 47.2242 819.205 22.7077C793.661 -2.09042 763.299 -21.9397 729.803 -35.7397C678.81 -56.5355 622.47 -62.4559 567.933 -52.7498C513.396 -43.0437 463.12 -18.1486 423.488 18.7759C397.007 43.6125 375.98 73.2051 361.628 105.835C347.276 138.464 339.886 173.481 339.886 208.85C339.886 244.219 347.276 279.235 361.628 311.864C375.98 344.494 397.007 374.087 423.488 398.923C463.144 435.84 513.436 460.724 567.986 470.421C622.536 480.117 678.886 474.188 729.887 453.386C763.364 439.613 793.723 419.811 819.289 395.071C844.839 370.558 865.053 341.493 878.773 309.541C892.494 277.588 899.452 243.376 899.248 208.863L899.164 208.943ZM890.783 208.943C890.758 271.909 866.108 332.617 821.627 379.262C777.146 425.906 716.012 455.154 650.113 461.317C584.214 467.48 518.26 450.118 465.075 412.608C411.89 375.098 375.275 320.119 362.35 258.364C349.425 196.608 361.115 132.488 395.144 78.4726C429.174 24.4568 483.112 -15.5946 546.471 -33.8935C609.83 -52.1924 678.082 -47.4309 737.954 -20.5354C797.826 6.36023 845.04 53.4676 870.416 111.628C883.85 142.482 890.77 175.548 890.783 208.943V208.943Z" fill="white"/>
<path d="M918.889 208.942C919.043 171.993 911.537 135.377 896.801 101.188C882.065 66.9993 860.387 35.907 833.007 9.68942C791.643 -30.2889 738.757 -57.7261 681.017 -69.1629C623.278 -80.5998 563.27 -75.5242 508.56 -54.5761C471.933 -40.5966 438.598 -19.8251 410.497 6.5281C382.34 33.0088 359.987 64.5375 344.731 99.2889C329.475 134.04 321.62 171.324 321.62 208.982C321.62 246.64 329.475 283.924 344.731 318.675C359.987 353.427 382.34 384.956 410.497 411.436C452.407 450.885 505.667 477.644 563.555 488.339C621.442 499.033 681.364 493.183 735.759 471.527C790.153 449.871 836.584 413.378 869.191 366.655C901.798 319.932 919.12 265.071 918.973 208.995L918.889 208.942ZM910.508 208.942C910.471 276.532 884.003 341.693 836.249 391.755C788.496 441.818 722.87 473.205 652.133 479.811C581.395 486.418 510.602 467.773 453.518 427.502C396.434 387.231 357.139 328.212 343.275 261.92C329.41 195.629 341.966 126.804 378.502 68.828C415.038 10.8515 472.942 -32.1329 540.955 -51.7666C608.968 -71.4004 682.229 -66.2802 746.493 -37.4022C810.757 -8.52415 861.43 42.0479 888.66 104.481C903.042 137.609 910.437 173.102 910.424 208.942H910.508Z" fill="white"/>
<path d="M938.671 208.944C938.797 169.543 930.757 130.504 915.009 94.0584C899.262 57.6131 876.116 24.4761 846.894 -3.45896C802.783 -45.8939 746.445 -74.9581 684.986 -86.9862C623.527 -99.0142 559.698 -93.4675 501.55 -71.0456C462.704 -56.0891 427.368 -33.9468 397.591 -5.90324C367.567 22.0396 343.669 55.3676 327.279 92.1515C310.89 128.935 302.335 168.445 302.109 208.394C301.884 248.342 309.992 287.937 325.966 324.886C341.939 361.835 365.461 395.405 395.168 423.653C424.875 451.9 460.179 474.265 499.036 489.452C537.893 504.639 579.532 512.347 621.543 512.13C663.553 511.913 705.101 503.776 743.783 488.189C782.464 472.601 817.511 449.874 846.894 421.321C876.117 393.393 899.264 360.261 915.012 323.819C930.76 287.378 938.8 248.342 938.671 208.944V208.944ZM930.29 208.944C930.288 281.27 901.998 351.01 850.921 404.6C799.844 458.191 729.632 491.801 653.94 498.894C578.248 505.987 502.488 486.056 441.393 442.977C380.298 399.898 338.236 336.751 323.388 265.817C308.54 194.882 321.967 121.232 361.058 59.1905C400.149 -2.85149 462.109 -48.85 534.888 -69.8593C607.667 -90.8686 686.061 -85.3867 754.826 -54.4795C823.59 -23.5723 877.807 30.5504 906.933 97.3628C922.341 132.74 930.277 170.654 930.29 208.944Z" fill="white"/>
<path d="M958.056 208.944C958.12 145.748 938.49 83.9506 901.645 31.3561C864.799 -21.2384 812.391 -62.2715 751.038 -86.5616C689.685 -110.852 622.139 -117.31 556.929 -105.12C491.719 -92.9296 431.77 -62.6383 384.652 -18.0711C349.254 15.3279 322.101 55.788 305.156 100.385C288.21 144.983 281.897 192.603 286.67 239.804C291.444 287.005 307.186 332.608 332.758 373.317C358.331 414.026 393.095 448.824 434.538 475.196C475.981 501.568 523.068 518.855 572.396 525.807C621.723 532.76 672.059 529.204 719.765 515.398C767.471 501.591 811.355 477.878 848.246 445.973C885.137 414.068 914.113 374.768 933.079 330.913C949.728 292.206 958.214 250.764 958.056 208.944V208.944ZM949.954 208.944C949.908 285.893 919.769 360.076 865.397 417.067C811.025 474.058 736.307 509.784 655.773 517.297C575.238 524.81 494.644 503.573 429.662 457.716C364.679 411.859 319.954 344.66 304.183 269.186C288.412 193.713 302.723 115.359 344.332 49.3612C385.941 -16.6362 451.875 -65.5598 529.312 -87.8958C606.749 -110.232 690.154 -104.384 763.308 -71.4889C836.463 -38.5941 894.137 18.9961 925.117 90.0831C941.468 127.78 949.869 168.166 949.842 208.944H949.954Z" fill="white"/>
<path d="M977.528 208.942C977.271 125.373 944.337 44.8823 885.132 -16.8766C825.926 -78.6355 744.681 -117.247 657.197 -125.202C569.713 -133.157 482.245 -109.887 411.804 -59.9167C341.362 -9.94666 292.984 63.1505 276.076 145.159C259.169 227.167 274.942 312.224 320.328 383.787C365.713 455.35 437.467 508.303 521.633 532.348C605.8 556.393 696.363 549.81 775.708 513.88C855.054 477.951 917.511 415.243 950.931 337.952C968.601 297.022 977.638 253.187 977.528 208.942V208.942ZM969.873 208.942C969.859 290.666 937.881 369.463 880.158 430.008C822.436 490.554 743.095 528.521 657.567 536.524C572.039 544.527 486.438 521.995 417.412 473.309C348.386 424.624 300.87 353.265 284.104 273.113C267.338 192.96 282.522 109.742 326.702 39.6448C370.882 -30.4528 440.9 -82.4193 523.139 -106.148C605.378 -129.876 693.958 -123.671 771.652 -88.7379C849.346 -53.805 910.599 7.3579 943.499 82.8555C960.913 122.83 969.875 165.674 969.873 208.942V208.942Z" fill="white"/>
<path d="M954.819 46.0547C912.093 -32.0917 840.33 -92.3341 753.485 -122.957C666.641 -153.581 570.923 -152.396 484.947 -119.633C398.97 -86.8702 328.881 -24.8716 288.308 54.306C247.736 133.484 239.582 224.18 265.431 308.758C291.279 393.336 349.284 465.749 428.164 511.915C507.044 558.081 601.16 574.699 692.211 558.539C783.262 542.379 864.738 494.595 920.794 424.48C976.851 354.365 1003.48 266.931 995.505 179.181C991.248 132.699 977.424 87.4659 954.819 46.0547ZM948.565 49.1297C990.292 125.867 1000.51 214.618 977.246 298.125C953.976 381.631 898.878 453.924 822.666 500.944C746.454 547.963 654.576 566.349 564.9 552.525C475.223 538.702 394.158 493.657 337.469 426.151C280.781 358.645 252.521 273.503 258.185 187.282C263.85 101.062 303.034 19.9265 368.117 -40.3457C433.2 -100.618 519.53 -135.718 610.319 -138.821C701.107 -141.924 789.864 -112.808 859.33 -57.1337C896.113 -27.6175 926.433 8.48854 948.565 49.1297Z" fill="white"/>
<path d="M906.262 -49.5556C838.646 -116.262 747.356 -156.67 650.147 -162.921C552.938 -169.172 456.758 -140.82 380.313 -83.3775C303.868 -25.9352 252.622 56.4904 236.542 147.869C220.462 239.248 240.697 333.048 293.313 411.026C345.928 489.005 427.161 545.587 521.215 569.77C615.269 593.953 715.42 584.007 802.189 541.867C888.959 499.726 956.146 428.404 990.682 341.77C1025.22 255.137 1024.64 159.386 989.048 73.138C970.183 27.4726 942.053 -14.2171 906.262 -49.5556V-49.5556ZM901.77 -45.4502C968.137 20.2731 1006.43 107.119 1009.19 198.198C1011.96 289.277 979.002 378.079 916.734 447.335C854.466 516.59 767.337 561.348 672.291 572.905C577.245 584.462 481.076 561.991 402.486 509.863C323.896 457.735 268.503 379.676 247.08 290.865C225.656 202.055 239.733 108.842 286.573 29.3533C333.413 -50.1351 409.668 -110.217 500.509 -139.207C591.349 -168.198 690.282 -164.026 778.067 -127.502C824.558 -108.125 866.589 -80.2455 901.77 -45.4502V-45.4502Z" fill="white"/>
<path d="M977.07 8.66217C924.672 -74.6748 841.553 -136.502 743.877 -164.797C646.201 -193.092 540.95 -185.832 448.591 -144.429C356.231 -103.026 283.366 -30.439 244.164 59.2162C204.962 148.871 202.226 249.186 236.488 340.654C270.749 432.121 339.56 508.202 429.538 554.102C519.516 600.002 624.23 612.441 723.317 588.999C822.404 565.557 908.782 507.909 965.652 427.267C1022.52 346.625 1045.82 248.753 1031.02 152.683C1023.15 101.774 1004.82 52.8365 977.07 8.66217V8.66217ZM972.559 11.2202C1024.16 93.5992 1041.7 191.283 1021.76 285.275C1001.82 379.267 945.833 462.848 864.685 519.765C783.538 576.681 683.029 602.864 582.706 593.222C482.383 583.58 389.417 538.802 321.888 467.596C254.358 396.39 217.091 303.845 217.335 207.961C217.579 112.076 255.317 19.7043 323.209 -51.1901C391.1 -122.084 484.293 -166.434 584.664 -175.614C685.035 -184.794 785.409 -158.149 866.266 -100.859C909.08 -70.4857 945.195 -32.4035 972.559 11.2202V11.2202Z" fill="white"/>
<path d="M1020.97 50.9344C979.646 -42.7662 903.149 -118.502 806.358 -161.546C709.567 -204.589 599.401 -211.863 497.283 -181.953C395.165 -152.043 308.396 -87.0875 253.847 0.282632C199.299 87.6528 180.871 191.192 202.148 290.765C223.425 390.338 282.885 478.828 368.966 539.025C455.047 599.223 561.595 626.826 667.891 616.466C774.186 606.106 872.63 558.524 944.08 482.973C1015.53 407.422 1054.88 309.303 1054.47 207.695C1054.23 153.858 1042.85 100.592 1020.97 50.9344V50.9344ZM1017.18 52.4421C1058 145.317 1061.04 249.309 1025.7 344.194C990.36 439.079 919.174 518.075 825.983 565.819C732.792 613.562 624.258 626.64 521.489 602.51C418.72 578.381 329.061 518.767 269.95 435.264C210.839 351.76 186.5 250.335 201.667 150.714C216.833 51.0921 270.421 -39.6048 352.01 -103.739C433.598 -167.873 537.354 -200.86 643.1 -196.284C748.846 -191.709 849.023 -149.898 924.149 -78.9831C963.942 -41.4116 995.571 3.2379 1017.24 52.4215L1017.18 52.4421Z" fill="white"/>
<path d="M623.387 -217.75C871.206 -217.75 1072.1 -26.7131 1072.1 208.943C1072.1 444.599 871.206 635.636 623.387 635.636C375.568 635.636 174.671 444.599 174.671 208.943C174.671 -26.7131 375.568 -217.75 623.387 -217.75Z" stroke="white" stroke-miterlimit="10"/>
</g>
<g opacity="0.6" filter="url(#filter0_f_1483_72161)">
<path d="M196.112 624.401L1249.55 167.001L1012.54 -258.701L136.343 475.601L196.112 624.401Z" fill="url(#paint0_linear_1483_72161)"/>
</g>



</g>
<defs>
<filter id="filter0_f_1483_72161" x="-113.657" y="-508.701" width="1613.21" height="1383.1" filterUnits="userSpaceOnUse" color-interpolation-filters="sRGB">
<feFlood flood-opacity="0" result="BackgroundImageFix"/>
<feBlend mode="normal" in="SourceGraphic" in2="BackgroundImageFix" result="shape"/>
<feGaussianBlur stdDeviation="125" result="effect1_foregroundBlur_1483_72161"/>
</filter>
<linearGradient id="paint0_linear_1483_72161" x1="250.975" y1="722.944" x2="718.855" y2="-382.954" gradientUnits="userSpaceOnUse">
<stop stop-color="#4460FA"/>
<stop offset="0.302083" stop-color="#907BFF"/>
<stop offset="0.578614" stop-color="#EC9AB6"/>
<stop offset="1" stop-color="#FEBC6D"/>
</linearGradient>
<linearGradient id="paint1_linear_1483_72161" x1="550.5" y1="253" x2="656.452" y2="347.179" gradientUnits="userSpaceOnUse">
<stop stop-color="#4460FA"/>
<stop offset="0.302083" stop-color="#907BFF"/>
<stop offset="0.578614" stop-color="#EC9AB6"/>
<stop offset="1" stop-color="#FEBC6D"/>
</linearGradient>
</defs>
</svg>
