<svg width="343" height="398" viewBox="0 0 343 398" fill="none" xmlns="http://www.w3.org/2000/svg">
<mask id="mask0_3408_86608" style="mask-type:alpha" maskUnits="userSpaceOnUse" x="0" y="0" width="343" height="398">
<rect width="343" height="398" rx="12" fill="#212A3F"/>
</mask>
<g mask="url(#mask0_3408_86608)">
<rect width="343" height="398" rx="12" fill="#121929"/>
<g opacity="0.05">
<path d="M254.574 246.391L254.266 239.721C253.996 237.51 253.611 235.311 253.29 233.1C252.969 230.889 252.211 228.764 251.684 226.589C251.157 224.415 250.194 222.351 249.449 220.237C245.005 209.175 237.781 199.314 228.409 191.516C219.036 183.718 207.799 178.22 195.678 175.5C183.557 172.781 170.921 172.924 158.871 175.916C146.822 178.908 135.725 184.659 126.55 192.667C118.779 199.48 112.581 207.754 108.347 216.964C104.109 226.251 101.923 236.267 101.924 246.391L102.373 253.94C102.707 256.383 103.17 258.937 103.581 261.416C103.992 263.896 104.943 266.303 105.624 268.746C106.304 271.189 107.486 273.473 108.437 275.819C112.684 285.017 118.885 293.281 126.653 300.091C134.34 306.744 143.352 311.865 153.154 315.153C171.89 321.269 192.387 320.249 210.35 312.308C228.312 304.367 242.343 290.121 249.5 272.557C250.245 270.431 251.08 268.343 251.748 266.205C252.416 264.067 252.866 261.856 253.354 259.682C253.842 257.507 254.061 255.284 254.33 253.073L254.574 246.391ZM252.686 246.391C252.695 259.46 248.621 272.236 240.981 283.1C233.342 293.963 222.481 302.424 209.777 307.409C197.073 312.393 183.098 313.677 169.625 311.098C156.152 308.519 143.789 302.192 134.103 292.921C124.454 283.695 117.889 271.961 115.235 259.197C112.581 246.432 113.957 233.206 119.188 221.182C124.42 209.159 133.274 198.876 144.637 191.626C156 184.376 169.364 180.484 183.047 180.439C201.479 180.41 219.169 187.342 232.228 199.711C245.287 212.081 252.645 228.876 252.686 246.403V246.391Z" fill="white"/>
<path d="M263.886 246.39C263.995 236.271 262.009 226.231 258.041 216.841C256.062 212.137 253.66 207.604 250.86 203.293C248.008 198.977 244.721 194.935 241.046 191.224C233.448 183.409 224.3 177.101 214.127 172.661C203.955 168.221 192.96 165.739 181.775 165.356C170.59 164.974 159.436 166.699 148.955 170.432C138.473 174.165 128.872 179.832 120.703 187.108C116.504 190.899 112.701 195.068 109.347 199.555C105.953 204.057 103.089 208.899 100.804 213.994C96.137 224.21 93.7285 235.228 93.7285 246.366C93.7285 257.504 96.137 268.522 100.804 278.737C105.479 288.875 112.251 298.014 120.716 305.612C128.893 312.867 138.495 318.516 148.971 322.237C159.448 325.958 170.594 327.677 181.77 327.296C192.946 326.914 203.933 324.44 214.103 320.015C224.272 315.59 233.424 309.301 241.033 301.507C244.707 297.803 247.99 293.764 250.835 289.45C253.638 285.14 256.045 280.608 258.028 275.903C261.997 266.526 263.987 256.498 263.886 246.39ZM261.471 246.39C261.505 264.888 254.303 282.736 241.265 296.464C228.227 310.191 210.286 318.817 190.931 320.663C171.576 322.51 152.191 317.444 136.546 306.453C120.9 295.461 110.113 279.329 106.283 261.194C102.452 243.059 105.852 224.217 115.82 208.333C125.789 192.449 141.614 180.659 160.218 175.255C178.821 169.851 198.873 171.221 216.474 179.096C234.075 186.972 247.966 200.791 255.446 217.867C259.403 226.907 261.45 236.599 261.471 246.39Z" fill="white"/>
<path d="M273.162 246.393C273.256 235.118 271.017 223.937 266.572 213.484C262.182 202.947 255.706 193.31 247.495 185.095C236.847 174.327 223.547 166.25 208.796 161.591C194.044 156.933 178.305 155.84 162.998 158.411C147.692 160.981 133.299 167.135 121.118 176.317C108.937 185.499 99.3514 197.42 93.2259 211.004C88.1663 222.18 85.5566 234.219 85.5566 246.387C85.5566 258.554 88.1663 270.594 93.2259 281.77C98.2917 292.865 105.643 302.883 114.846 311.234C123.799 319.289 134.333 325.586 145.847 329.767C157.361 333.947 169.628 335.928 181.948 335.597C194.268 335.266 206.398 332.629 217.645 327.836C228.892 323.044 239.036 316.19 247.495 307.667C251.603 303.567 255.285 299.099 258.492 294.327C261.648 289.552 264.352 284.52 266.572 279.29C271.017 268.841 273.256 257.663 273.162 246.393ZM270.297 246.393C270.321 266.966 262.297 286.812 247.787 302.072C233.276 317.332 213.316 326.915 191.788 328.957C170.26 330.999 148.702 325.355 131.308 313.122C113.913 300.888 101.925 282.94 97.6741 262.768C93.4232 242.596 97.2138 221.641 108.309 203.979C119.404 186.317 137.009 173.21 157.703 167.207C178.396 161.204 200.698 162.734 220.272 171.499C239.845 180.265 255.29 195.639 263.604 214.632C268.01 224.698 270.284 235.491 270.297 246.393Z" fill="white"/>
<path d="M282.399 246.393C282.48 233.971 279.988 221.655 275.064 210.149C270.195 198.566 263.019 187.985 253.932 178.987C242.229 167.322 227.664 158.602 211.543 153.611C195.422 148.62 178.25 147.513 161.568 150.39C144.886 153.267 129.216 160.038 115.965 170.095C102.714 180.153 92.2966 193.181 85.6477 208.012C80.2056 220.144 77.4004 233.197 77.4004 246.387C77.4004 259.577 80.2056 272.63 85.6477 284.763C91.105 296.83 99.0406 307.74 108.989 316.853C123.741 330.252 142.354 339.173 162.456 342.48C182.558 345.787 203.24 343.329 221.868 335.421C227.907 332.836 233.664 329.694 239.056 326.039C244.398 322.4 249.385 318.312 253.958 313.824C263.042 304.826 270.22 294.25 275.103 282.674C280.017 271.153 282.496 258.825 282.399 246.393ZM279.162 246.393C279.176 269.037 270.333 290.877 254.353 307.666C238.373 324.454 216.398 334.991 192.702 337.227C169.005 339.464 145.281 333.24 126.143 319.766C107.004 306.292 93.8194 286.531 89.1524 264.326C84.4855 242.121 88.6699 219.059 100.892 199.625C113.114 180.191 132.5 165.774 155.28 159.177C178.06 152.581 202.606 154.276 224.145 163.934C245.683 173.592 262.674 190.522 271.814 211.432C276.663 222.512 279.173 234.392 279.201 246.393H279.162Z" fill="white"/>
<path d="M291.583 246.391C291.631 218.763 280.296 192.216 260.008 172.439C239.72 152.663 212.092 141.23 183.046 140.591C160.755 140.058 138.812 145.915 120.069 157.401C101.326 168.886 86.6506 185.469 77.9515 204.992C72.1151 218.086 69.1074 232.163 69.1074 246.385C69.1074 260.607 72.1151 274.683 77.9515 287.777C86.6814 307.275 101.363 323.833 120.096 335.31C138.83 346.787 160.754 352.655 183.033 352.154C212.054 351.46 239.641 340.014 259.916 320.258C280.191 300.501 291.549 273.996 291.57 246.391H291.583ZM288.063 246.391C288.067 271.126 278.397 294.979 260.933 313.311C243.469 331.643 219.459 343.144 193.573 345.577C167.687 348.011 141.774 341.202 120.874 326.476C99.9734 311.75 85.5794 290.159 80.4905 265.901C75.4016 241.644 79.9816 216.453 93.3399 195.228C106.698 174.004 127.88 158.261 152.767 151.063C177.653 143.865 204.466 145.725 227.99 156.281C251.514 166.838 270.07 185.337 280.047 208.18C285.33 220.294 288.054 233.277 288.063 246.391Z" fill="white"/>
<path d="M300.744 246.391C300.769 220.058 291.21 194.528 273.691 174.134C256.172 153.74 231.772 139.739 204.631 134.507C177.491 129.275 149.283 133.134 124.795 145.429C100.306 157.725 81.0467 177.699 70.2843 201.963C60.8856 223.115 58.4153 246.471 63.196 268.979C67.9767 291.487 79.7862 312.101 97.0813 328.126C113.989 343.764 135.367 354.317 158.546 358.467C181.725 362.617 205.676 360.179 227.406 351.458C249.136 342.738 267.682 328.12 280.725 309.434C293.769 290.747 300.732 268.819 300.744 246.391ZM297.019 246.391C297.024 273.253 286.522 299.157 267.557 319.065C248.592 338.973 222.518 351.462 194.407 354.104C166.295 356.746 138.155 349.351 115.459 333.358C92.7625 317.365 77.1324 293.917 71.6081 267.574C66.0838 241.23 71.0601 213.874 85.5693 190.826C100.079 167.778 123.084 150.685 150.111 142.871C177.138 135.058 206.255 137.081 231.8 148.549C257.344 160.017 277.491 180.109 288.322 204.919C294.047 218.068 297.002 232.159 297.019 246.391Z" fill="white"/>
<path d="M309.853 246.393C309.948 230.521 306.75 214.788 300.441 200.094C294.132 185.4 284.836 172.034 273.087 160.761C261.341 149.359 247.381 140.232 231.979 133.886C208.533 124.324 182.627 121.602 157.551 126.065C132.474 130.528 109.357 141.975 91.1342 158.953C78.9582 170.373 69.2898 183.98 62.6907 198.983C56.0916 213.986 52.6934 230.087 52.6934 246.35C52.6934 262.613 56.0916 278.713 62.6907 293.717C69.2898 308.72 78.9582 322.327 91.1342 333.747C109.368 350.721 132.493 362.163 157.575 366.622C182.657 371.08 208.567 368.354 232.018 358.789C247.411 352.456 261.37 343.351 273.126 331.976C284.873 320.704 294.168 307.34 300.477 292.648C306.786 277.956 309.985 262.225 309.891 246.356L309.853 246.393ZM305.999 246.393C305.987 275.345 294.653 303.259 274.2 324.706C253.748 346.154 225.638 359.602 195.338 362.436C165.037 365.269 134.711 357.287 110.256 340.039C85.8013 322.792 68.9655 297.512 63.0226 269.117C57.0797 240.721 62.4545 211.239 78.1015 186.402C93.7485 161.565 118.55 143.149 147.682 134.735C176.815 126.321 208.198 128.511 235.727 140.878C263.257 153.244 284.966 174.904 296.634 201.647C302.811 215.834 305.993 231.038 305.999 246.393Z" fill="white"/>
<path d="M318.922 246.39C318.993 229.401 315.542 212.565 308.766 196.845C301.99 181.124 292.023 166.828 279.433 154.773C260.414 136.391 236.097 123.775 209.548 118.516C182.999 113.257 155.407 115.591 130.251 125.223C113.41 131.651 98.0817 141.202 85.1609 153.319C72.2143 165.495 61.9362 179.992 54.9215 195.971C47.9068 211.95 44.2949 229.093 44.2949 246.409C44.2949 263.724 47.9068 280.867 54.9215 296.846C61.9362 312.825 72.2143 327.322 85.1609 339.498C104.432 357.637 128.921 369.941 155.538 374.858C182.155 379.776 209.707 377.086 234.718 367.128C259.729 357.17 281.078 340.391 296.071 318.907C311.064 297.424 319.029 272.199 318.961 246.415L318.922 246.39ZM315.068 246.39C315.052 277.468 302.881 307.43 280.924 330.449C258.967 353.468 228.792 367.9 196.266 370.937C163.741 373.975 131.19 365.402 104.942 346.885C78.6946 328.368 60.6267 301.231 54.2518 270.75C47.8768 240.269 53.6503 208.623 70.4496 181.965C87.249 155.307 113.874 135.543 145.146 126.515C176.419 117.487 210.105 119.842 239.654 133.12C269.202 146.398 292.502 169.651 305.023 198.358C311.636 213.591 315.036 229.911 315.03 246.39H315.068Z" fill="white"/>
<path d="M328.017 246.392C328.075 228.275 324.378 210.325 317.137 193.567C309.896 176.809 299.254 161.573 285.817 148.728C265.535 129.216 239.63 115.852 211.371 110.322C183.112 104.791 153.763 107.342 127.026 117.651C109.165 124.529 92.917 134.71 79.2256 147.604C65.4202 160.452 54.4317 175.777 46.8957 192.69C39.3597 209.604 35.4261 227.77 35.3224 246.139C35.2188 264.508 38.9471 282.714 46.2918 299.703C53.6365 316.692 64.4517 332.128 78.1113 345.116C91.7709 358.105 108.004 368.388 125.87 375.371C143.737 382.354 162.883 385.898 182.2 385.799C201.516 385.699 220.62 381.957 238.406 374.79C256.192 367.623 272.307 357.173 285.817 344.044C299.254 331.203 309.897 315.968 317.138 299.212C324.379 282.456 328.076 264.508 328.017 246.392ZM324.163 246.392C324.162 279.648 311.154 311.715 287.669 336.356C264.183 360.997 231.9 376.451 197.096 379.713C162.292 382.974 127.457 373.809 99.3656 354.002C71.2738 334.194 51.9335 305.158 45.1063 272.542C38.2791 239.927 44.4531 206.062 62.4273 177.535C80.4015 149.007 108.891 127.857 142.355 118.197C175.819 108.537 211.866 111.057 243.484 125.269C275.102 139.48 300.031 164.366 313.424 195.086C320.508 211.353 324.157 228.786 324.163 246.392Z" fill="white"/>
<path d="M336.931 246.394C336.961 217.336 327.935 188.921 310.993 164.738C294.051 140.555 269.954 121.687 241.743 110.519C213.533 99.35 182.475 96.3806 152.491 101.986C122.507 107.591 94.9421 121.519 73.277 142.011C57.0006 157.368 44.5156 175.972 36.7241 196.478C28.9327 216.984 26.0296 238.88 28.2245 260.583C30.4195 282.287 37.6576 303.255 49.416 321.973C61.1743 340.692 77.159 356.692 96.2148 368.818C115.271 380.944 136.921 388.892 159.603 392.089C182.284 395.286 205.428 393.651 227.364 387.303C249.299 380.954 269.477 370.051 286.44 355.381C303.402 340.711 316.726 322.641 325.447 302.476C333.102 284.678 337.004 265.623 336.931 246.394ZM333.206 246.394C333.185 281.775 319.326 315.885 294.326 342.09C269.326 368.295 234.97 384.721 197.94 388.176C160.91 391.63 123.852 381.866 93.9727 360.78C64.0936 339.695 43.5286 308.797 36.2771 274.093C29.0255 239.39 35.6056 203.363 54.7377 173.017C73.8699 142.671 104.187 120.175 139.792 109.905C175.398 99.635 213.748 102.324 247.385 117.449C281.022 132.574 307.541 159.055 321.786 191.741C329.304 209.074 333.167 227.644 333.154 246.394H333.206Z" fill="white"/>
<path d="M345.883 246.391C345.765 207.966 330.622 170.956 303.399 142.559C276.175 114.161 238.818 96.4077 198.593 92.7499C158.368 89.0922 118.149 99.792 85.7599 122.768C53.3707 145.745 31.1259 179.355 23.3519 217.063C15.5778 254.771 22.8304 293.881 43.6988 326.786C64.5673 359.691 97.5599 384.039 136.26 395.095C174.96 406.151 216.602 403.124 253.085 386.603C289.569 370.083 318.287 341.249 333.653 305.711C341.778 286.891 345.933 266.735 345.883 246.391ZM342.363 246.391C342.357 283.968 327.653 320.199 301.112 348.039C274.571 375.878 238.089 393.335 198.763 397.015C159.437 400.695 120.077 390.334 88.3387 367.949C56.6002 345.563 34.7518 312.752 27.0429 275.897C19.334 239.042 26.3156 200.779 46.6298 168.547C66.9441 136.316 99.1388 112.422 136.953 101.511C174.766 90.6006 215.496 93.454 251.22 109.516C286.944 125.579 315.109 153.702 330.236 188.416C338.243 206.796 342.364 226.496 342.363 246.391Z" fill="white"/>
<path d="M335.442 171.495C315.797 135.562 282.8 107.863 242.868 93.7819C202.937 79.7011 158.925 80.246 119.393 95.3105C79.8602 110.375 47.6326 138.882 28.9773 175.289C10.322 211.695 6.57248 253.397 18.4579 292.287C30.3433 331.176 57.014 364.472 93.2835 385.699C129.553 406.927 172.828 414.568 214.694 407.138C256.559 399.707 294.022 377.736 319.798 345.497C345.573 313.257 357.817 273.055 354.15 232.707C352.193 211.334 345.836 190.536 335.442 171.495ZM332.567 172.908C351.753 208.192 356.453 249.001 345.754 287.398C335.055 325.794 309.72 359.035 274.678 380.655C239.635 402.275 197.389 410.728 156.155 404.372C114.922 398.016 77.6475 377.304 51.5818 346.265C25.5161 315.225 12.5221 276.076 15.1266 236.432C17.7311 196.787 35.7479 159.481 65.6735 131.767C95.5991 104.054 135.294 87.9143 177.039 86.4876C218.784 85.0609 259.595 98.4489 291.536 124.048C308.449 137.62 322.39 154.221 332.567 172.908Z" fill="white"/>
<path d="M313.116 127.532C282.026 96.8596 240.05 78.2798 195.353 75.4054C150.656 72.5311 106.432 85.5678 71.282 111.98C36.1322 138.392 12.5691 176.292 5.17549 218.309C-2.21814 260.325 7.08611 303.455 31.2788 339.309C55.4715 375.164 92.8232 401.181 136.07 412.301C179.316 423.42 225.366 418.847 265.263 399.471C305.16 380.094 336.053 347.3 351.933 307.465C367.813 267.631 367.545 223.604 351.182 183.947C342.507 162.949 329.573 143.78 313.116 127.532ZM311.051 129.419C341.567 159.639 359.172 199.571 360.444 241.45C361.715 283.329 346.562 324.16 317.931 356.004C289.3 387.848 249.238 408.428 205.535 413.742C161.832 419.056 117.614 408.724 81.4775 384.755C45.3414 360.786 19.8714 324.894 10.0207 284.059C0.169992 243.223 6.64255 200.363 28.1799 163.814C49.7173 127.265 84.7798 99.6393 126.549 86.3091C168.318 72.979 213.807 74.8974 254.171 91.6915C275.548 100.601 294.874 113.42 311.051 129.419Z" fill="white"/>
<path d="M345.672 154.302C321.58 115.983 283.361 87.5543 238.449 74.5441C193.537 61.5338 145.142 64.872 102.675 83.9094C60.2077 102.947 26.7037 136.323 8.67844 177.547C-9.34676 218.771 -10.6048 264.896 5.14893 306.953C20.9026 349.01 52.5419 383.993 93.9143 405.098C135.287 426.203 183.435 431.922 228.996 421.143C274.556 410.364 314.273 383.858 340.423 346.778C366.572 309.699 377.285 264.697 370.478 220.523C366.86 197.115 358.432 174.613 345.672 154.302ZM343.598 155.478C367.324 193.356 375.388 238.272 366.22 281.49C357.053 324.708 331.31 363.139 293.998 389.309C256.685 415.48 210.471 427.519 164.342 423.085C118.213 418.652 75.4669 398.063 44.4163 365.322C13.3657 332.581 -3.76967 290.028 -3.6574 245.94C-3.54515 201.852 13.8067 159.379 45.0236 126.781C76.2406 94.1836 119.091 73.7915 165.242 69.5704C211.393 65.3494 257.546 77.601 294.724 103.943C314.41 117.909 331.016 135.419 343.598 155.478Z" fill="white"/>
<path d="M365.859 173.74C346.857 130.656 311.684 95.8325 267.179 76.0409C222.674 56.2493 172.019 52.9047 125.064 66.6574C78.1102 80.4102 38.2129 110.277 13.1313 150.45C-11.9503 190.624 -20.4234 238.231 -10.6402 284.016C-0.856926 329.8 26.4833 370.488 66.0637 398.167C105.644 425.846 154.636 438.538 203.511 433.775C252.386 429.011 297.651 407.133 330.504 372.394C363.357 337.655 381.449 292.539 381.261 245.82C381.151 221.065 375.917 196.573 365.859 173.74ZM364.117 174.434C382.886 217.138 384.282 264.954 368.033 308.583C351.784 352.211 319.052 388.534 276.202 410.487C233.352 432.439 183.448 438.453 136.194 427.358C88.9406 416.263 47.7152 388.852 20.5355 350.457C-6.64424 312.062 -17.8354 265.426 -10.8616 219.619C-3.88786 173.813 20.7523 132.11 58.267 102.621C95.7817 73.1315 143.489 57.964 192.112 60.0679C240.734 62.1717 286.796 81.3965 321.34 114.004C339.636 131.279 354.18 151.809 364.141 174.424L364.117 174.434Z" fill="white"/>
<path d="M183.048 50.1947C296.997 50.1947 389.37 138.035 389.37 246.39C389.37 354.746 296.997 442.586 183.048 442.586C69.1 442.586 -23.2734 354.746 -23.2734 246.39C-23.2734 138.035 69.1 50.1947 183.048 50.1947Z" stroke="white" stroke-miterlimit="10"/>
</g>
<g opacity="0.6" filter="url(#filter0_f_3408_86608)">
<path d="M156.538 337.705L529.373 -27.8202L359.515 -170.001L106.962 284.254L156.538 337.705Z" fill="url(#paint0_linear_3408_86608)"/>
</g>
<!-- <rect x="104.5" y="233" width="134" height="44" rx="22" stroke="url(#paint1_linear_3408_86608)" stroke-width="2"/> -->
</g>
<defs>
<filter id="filter0_f_3408_86608" x="-33.0391" y="-310" width="702.412" height="787.703" filterUnits="userSpaceOnUse" color-interpolation-filters="sRGB">
<feFlood flood-opacity="0" result="BackgroundImageFix"/>
<feBlend mode="normal" in="SourceGraphic" in2="BackgroundImageFix" result="shape"/>
<feGaussianBlur stdDeviation="70" result="effect1_foregroundBlur_3408_86608"/>
</filter>
<linearGradient id="paint0_linear_3408_86608" x1="195.857" y1="370.617" x2="216.861" y2="-175.488" gradientUnits="userSpaceOnUse">
<stop stop-color="#4460FA"/>
<stop offset="0.302083" stop-color="#907BFF"/>
<stop offset="0.578614" stop-color="#EC9AB6"/>
<stop offset="1" stop-color="#FEBC6D"/>
</linearGradient>
<linearGradient id="paint1_linear_3408_86608" x1="103.5" y1="232" x2="198.345" y2="321.576" gradientUnits="userSpaceOnUse">
<stop stop-color="#4460FA"/>
<stop offset="0.302083" stop-color="#907BFF"/>
<stop offset="0.578614" stop-color="#EC9AB6"/>
<stop offset="1" stop-color="#FEBC6D"/>
</linearGradient>
</defs>
</svg>
